G04 #@! TF.GenerationSoftware,KiCad,Pcbnew,5.0.2-bee76a0~70~ubuntu18.04.1*
G04 #@! TF.CreationDate,2019-06-27T14:31:57-07:00*
G04 #@! TF.ProjectId,stator_plate,73746174-6f72-45f7-906c-6174652e6b69,rev?*
G04 #@! TF.SameCoordinates,Original*
G04 #@! TF.FileFunction,Soldermask,Bot*
G04 #@! TF.FilePolarity,Negative*
%FSLAX46Y46*%
G04 Gerber Fmt 4.6, Leading zero omitted, Abs format (unit mm)*
G04 Created by KiCad (PCBNEW 5.0.2-bee76a0~70~ubuntu18.04.1) date Thu 27 Jun 2019 02:31:57 PM PDT*
%MOMM*%
%LPD*%
G01*
G04 APERTURE LIST*
%ADD10C,0.100000*%
G04 APERTURE END LIST*
D10*
G36*
X148946821Y-121396144D02*
X149123500Y-121431287D01*
X149261373Y-121488396D01*
X149456355Y-121569160D01*
X149755923Y-121769325D01*
X150010675Y-122024077D01*
X150210840Y-122323645D01*
X150348713Y-122656501D01*
X150419000Y-123009858D01*
X150419000Y-123370142D01*
X150348713Y-123723499D01*
X150210840Y-124056355D01*
X150010675Y-124355923D01*
X149755923Y-124610675D01*
X149456355Y-124810840D01*
X149261373Y-124891604D01*
X149123500Y-124948713D01*
X148946820Y-124983857D01*
X148770142Y-125019000D01*
X148409858Y-125019000D01*
X148233180Y-124983857D01*
X148056500Y-124948713D01*
X147918627Y-124891604D01*
X147723645Y-124810840D01*
X147424077Y-124610675D01*
X147169325Y-124355923D01*
X146969160Y-124056355D01*
X146831287Y-123723499D01*
X146761000Y-123370142D01*
X146761000Y-123009858D01*
X146831287Y-122656501D01*
X146969160Y-122323645D01*
X147169325Y-122024077D01*
X147424077Y-121769325D01*
X147723645Y-121569160D01*
X147918627Y-121488396D01*
X148056500Y-121431287D01*
X148233179Y-121396144D01*
X148409858Y-121361000D01*
X148770142Y-121361000D01*
X148946821Y-121396144D01*
X148946821Y-121396144D01*
G37*
G36*
X105766821Y-121396144D02*
X105943500Y-121431287D01*
X106081373Y-121488396D01*
X106276355Y-121569160D01*
X106575923Y-121769325D01*
X106830675Y-122024077D01*
X107030840Y-122323645D01*
X107168713Y-122656501D01*
X107239000Y-123009858D01*
X107239000Y-123370142D01*
X107168713Y-123723499D01*
X107030840Y-124056355D01*
X106830675Y-124355923D01*
X106575923Y-124610675D01*
X106276355Y-124810840D01*
X106081373Y-124891604D01*
X105943500Y-124948713D01*
X105766820Y-124983857D01*
X105590142Y-125019000D01*
X105229858Y-125019000D01*
X105053180Y-124983857D01*
X104876500Y-124948713D01*
X104738627Y-124891604D01*
X104543645Y-124810840D01*
X104244077Y-124610675D01*
X103989325Y-124355923D01*
X103789160Y-124056355D01*
X103651287Y-123723499D01*
X103581000Y-123370142D01*
X103581000Y-123009858D01*
X103651287Y-122656501D01*
X103789160Y-122323645D01*
X103989325Y-122024077D01*
X104244077Y-121769325D01*
X104543645Y-121569160D01*
X104738627Y-121488396D01*
X104876500Y-121431287D01*
X105053179Y-121396144D01*
X105229858Y-121361000D01*
X105590142Y-121361000D01*
X105766821Y-121396144D01*
X105766821Y-121396144D01*
G37*
G36*
X165406565Y-107927449D02*
X165597834Y-108006675D01*
X165769976Y-108121697D01*
X165916363Y-108268084D01*
X166031385Y-108440226D01*
X166110611Y-108631495D01*
X166151000Y-108834544D01*
X166151000Y-109041576D01*
X166110611Y-109244625D01*
X166031385Y-109435894D01*
X165916363Y-109608036D01*
X165769976Y-109754423D01*
X165597834Y-109869445D01*
X165406565Y-109948671D01*
X165203516Y-109989060D01*
X164996484Y-109989060D01*
X164793435Y-109948671D01*
X164602166Y-109869445D01*
X164430024Y-109754423D01*
X164283637Y-109608036D01*
X164168615Y-109435894D01*
X164089389Y-109244625D01*
X164049000Y-109041576D01*
X164049000Y-108834544D01*
X164089389Y-108631495D01*
X164168615Y-108440226D01*
X164283637Y-108268084D01*
X164430024Y-108121697D01*
X164602166Y-108006675D01*
X164793435Y-107927449D01*
X164996484Y-107887060D01*
X165203516Y-107887060D01*
X165406565Y-107927449D01*
X165406565Y-107927449D01*
G37*
G36*
X166151000Y-106488940D02*
X164049000Y-106488940D01*
X164049000Y-104386940D01*
X166151000Y-104386940D01*
X166151000Y-106488940D01*
X166151000Y-106488940D01*
G37*
G36*
X165406565Y-97259449D02*
X165597834Y-97338675D01*
X165769976Y-97453697D01*
X165916363Y-97600084D01*
X166031385Y-97772226D01*
X166110611Y-97963495D01*
X166151000Y-98166544D01*
X166151000Y-98373576D01*
X166110611Y-98576625D01*
X166031385Y-98767894D01*
X165916363Y-98940036D01*
X165769976Y-99086423D01*
X165597834Y-99201445D01*
X165406565Y-99280671D01*
X165203516Y-99321060D01*
X164996484Y-99321060D01*
X164793435Y-99280671D01*
X164602166Y-99201445D01*
X164430024Y-99086423D01*
X164283637Y-98940036D01*
X164168615Y-98767894D01*
X164089389Y-98576625D01*
X164049000Y-98373576D01*
X164049000Y-98166544D01*
X164089389Y-97963495D01*
X164168615Y-97772226D01*
X164283637Y-97600084D01*
X164430024Y-97453697D01*
X164602166Y-97338675D01*
X164793435Y-97259449D01*
X164996484Y-97219060D01*
X165203516Y-97219060D01*
X165406565Y-97259449D01*
X165406565Y-97259449D01*
G37*
G36*
X166151000Y-95820940D02*
X164049000Y-95820940D01*
X164049000Y-93718940D01*
X166151000Y-93718940D01*
X166151000Y-95820940D01*
X166151000Y-95820940D01*
G37*
G36*
X148946820Y-78216143D02*
X149123500Y-78251287D01*
X149261373Y-78308396D01*
X149456355Y-78389160D01*
X149755923Y-78589325D01*
X150010675Y-78844077D01*
X150210840Y-79143645D01*
X150348713Y-79476501D01*
X150419000Y-79829858D01*
X150419000Y-80190142D01*
X150348713Y-80543499D01*
X150210840Y-80876355D01*
X150010675Y-81175923D01*
X149755923Y-81430675D01*
X149456355Y-81630840D01*
X149261373Y-81711604D01*
X149123500Y-81768713D01*
X148946821Y-81803856D01*
X148770142Y-81839000D01*
X148409858Y-81839000D01*
X148233180Y-81803857D01*
X148056500Y-81768713D01*
X147918627Y-81711604D01*
X147723645Y-81630840D01*
X147424077Y-81430675D01*
X147169325Y-81175923D01*
X146969160Y-80876355D01*
X146831287Y-80543499D01*
X146761000Y-80190142D01*
X146761000Y-79829858D01*
X146831287Y-79476501D01*
X146969160Y-79143645D01*
X147169325Y-78844077D01*
X147424077Y-78589325D01*
X147723645Y-78389160D01*
X147918627Y-78308396D01*
X148056500Y-78251287D01*
X148233180Y-78216143D01*
X148409858Y-78181000D01*
X148770142Y-78181000D01*
X148946820Y-78216143D01*
X148946820Y-78216143D01*
G37*
G36*
X105766820Y-78216143D02*
X105943500Y-78251287D01*
X106081373Y-78308396D01*
X106276355Y-78389160D01*
X106575923Y-78589325D01*
X106830675Y-78844077D01*
X107030840Y-79143645D01*
X107168713Y-79476501D01*
X107239000Y-79829858D01*
X107239000Y-80190142D01*
X107168713Y-80543499D01*
X107030840Y-80876355D01*
X106830675Y-81175923D01*
X106575923Y-81430675D01*
X106276355Y-81630840D01*
X106081373Y-81711604D01*
X105943500Y-81768713D01*
X105766820Y-81803857D01*
X105590142Y-81839000D01*
X105229858Y-81839000D01*
X105053180Y-81803857D01*
X104876500Y-81768713D01*
X104738627Y-81711604D01*
X104543645Y-81630840D01*
X104244077Y-81430675D01*
X103989325Y-81175923D01*
X103789160Y-80876355D01*
X103651287Y-80543499D01*
X103581000Y-80190142D01*
X103581000Y-79829858D01*
X103651287Y-79476501D01*
X103789160Y-79143645D01*
X103989325Y-78844077D01*
X104244077Y-78589325D01*
X104543645Y-78389160D01*
X104738627Y-78308396D01*
X104876500Y-78251287D01*
X105053180Y-78216143D01*
X105229858Y-78181000D01*
X105590142Y-78181000D01*
X105766820Y-78216143D01*
X105766820Y-78216143D01*
G37*
M02*
