G04 #@! TF.GenerationSoftware,KiCad,Pcbnew,5.0.2-bee76a0~70~ubuntu18.04.1*
G04 #@! TF.CreationDate,2019-06-27T14:31:57-07:00*
G04 #@! TF.ProjectId,stator_plate,73746174-6f72-45f7-906c-6174652e6b69,rev?*
G04 #@! TF.SameCoordinates,Original*
G04 #@! TF.FileFunction,Copper,L1,Top*
G04 #@! TF.FilePolarity,Positive*
%FSLAX46Y46*%
G04 Gerber Fmt 4.6, Leading zero omitted, Abs format (unit mm)*
G04 Created by KiCad (PCBNEW 5.0.2-bee76a0~70~ubuntu18.04.1) date Thu 27 Jun 2019 02:31:57 PM PDT*
%MOMM*%
%LPD*%
G01*
G04 APERTURE LIST*
G04 #@! TA.AperFunction,ComponentPad*
%ADD10C,2.000000*%
G04 #@! TD*
G04 #@! TA.AperFunction,ComponentPad*
%ADD11R,2.000000X2.000000*%
G04 #@! TD*
G04 #@! TA.AperFunction,SMDPad,CuDef*
%ADD12R,2.387600X3.048000*%
G04 #@! TD*
G04 #@! TA.AperFunction,SMDPad,CuDef*
%ADD13R,3.048000X2.387600*%
G04 #@! TD*
G04 #@! TA.AperFunction,ComponentPad*
%ADD14C,3.556000*%
G04 #@! TD*
G04 #@! TA.AperFunction,Conductor*
%ADD15C,1.016000*%
G04 #@! TD*
G04 APERTURE END LIST*
D10*
G04 #@! TO.P,J1,2*
G04 #@! TO.N,Net-(J1-Pad2)*
X165100000Y-98270060D03*
D11*
G04 #@! TO.P,J1,1*
G04 #@! TO.N,Net-(J1-Pad1)*
X165100000Y-94769940D03*
G04 #@! TD*
G04 #@! TO.P,J2,1*
G04 #@! TO.N,Net-(J2-Pad1)*
X165100000Y-105437940D03*
D10*
G04 #@! TO.P,J2,2*
G04 #@! TO.N,Net-(J2-Pad2)*
X165100000Y-108938060D03*
G04 #@! TD*
D12*
G04 #@! TO.P,L1,1*
G04 #@! TO.N,Net-(L1-Pad1)*
X127000000Y-88417400D03*
G04 #@! TO.P,L1,2*
G04 #@! TO.N,Net-(J1-Pad1)*
X127000000Y-79222600D03*
G04 #@! TD*
G04 #@! TO.P,L2,1*
G04 #@! TO.N,Net-(L1-Pad1)*
X127000000Y-114782600D03*
G04 #@! TO.P,L2,2*
G04 #@! TO.N,Net-(J1-Pad2)*
X127000000Y-123977400D03*
G04 #@! TD*
D13*
G04 #@! TO.P,L3,2*
G04 #@! TO.N,Net-(J2-Pad2)*
X104622600Y-101600000D03*
G04 #@! TO.P,L3,1*
G04 #@! TO.N,Net-(L3-Pad1)*
X113817400Y-101600000D03*
G04 #@! TD*
G04 #@! TO.P,L4,2*
G04 #@! TO.N,Net-(J2-Pad1)*
X149377400Y-101600000D03*
G04 #@! TO.P,L4,1*
G04 #@! TO.N,Net-(L3-Pad1)*
X140182600Y-101600000D03*
G04 #@! TD*
D14*
G04 #@! TO.P,M1,*
G04 #@! TO.N,*
X105410000Y-80010000D03*
G04 #@! TD*
G04 #@! TO.P,M2,*
G04 #@! TO.N,*
X148590000Y-80010000D03*
G04 #@! TD*
G04 #@! TO.P,M3,*
G04 #@! TO.N,*
X148590000Y-123190000D03*
G04 #@! TD*
G04 #@! TO.P,M4,*
G04 #@! TO.N,*
X105410000Y-123190000D03*
G04 #@! TD*
D15*
G04 #@! TO.N,Net-(J1-Pad2)*
X166808400Y-99978500D02*
X165100000Y-98270100D01*
X142875000Y-111125000D02*
X166370000Y-111125000D01*
X167640000Y-109855000D02*
X167640000Y-100810100D01*
X130022600Y-123977400D02*
X142875000Y-111125000D01*
X127000000Y-123977400D02*
X130022600Y-123977400D01*
X166370000Y-111125000D02*
X167640000Y-109855000D01*
X167640000Y-100810100D02*
X166808400Y-99978500D01*
G04 #@! TO.N,Net-(J1-Pad1)*
X127000000Y-79222600D02*
X129209800Y-79222600D01*
X129209800Y-79222600D02*
X144757100Y-94769900D01*
X144757100Y-94769900D02*
X165100000Y-94769900D01*
G04 #@! TO.N,Net-(J2-Pad1)*
X165100000Y-105437900D02*
X163084000Y-105437900D01*
X149377400Y-101600000D02*
X159246100Y-101600000D01*
X159246100Y-101600000D02*
X163084000Y-105437900D01*
G04 #@! TO.N,Net-(J2-Pad2)*
X104622600Y-101600000D02*
X104622600Y-103809800D01*
X104622600Y-103809800D02*
X109750900Y-108938100D01*
X109750900Y-108938100D02*
X165100000Y-108938100D01*
G04 #@! TO.N,Net-(L1-Pad1)*
X101600000Y-98425000D02*
X101600000Y-105410000D01*
X127000000Y-88417400D02*
X111607600Y-88417400D01*
X110972600Y-114782600D02*
X127000000Y-114782600D01*
X101600000Y-105410000D02*
X110972600Y-114782600D01*
X111607600Y-88417400D02*
X101600000Y-98425000D01*
G04 #@! TO.N,Net-(L3-Pad1)*
X140182600Y-101600000D02*
X113817400Y-101600000D01*
G04 #@! TD*
M02*
