G04 #@! TF.GenerationSoftware,KiCad,Pcbnew,5.0.2-bee76a0~70~ubuntu18.04.1*
G04 #@! TF.CreationDate,2019-06-27T14:31:57-07:00*
G04 #@! TF.ProjectId,stator_plate,73746174-6f72-45f7-906c-6174652e6b69,rev?*
G04 #@! TF.SameCoordinates,Original*
G04 #@! TF.FileFunction,Legend,Top*
G04 #@! TF.FilePolarity,Positive*
%FSLAX46Y46*%
G04 Gerber Fmt 4.6, Leading zero omitted, Abs format (unit mm)*
G04 Created by KiCad (PCBNEW 5.0.2-bee76a0~70~ubuntu18.04.1) date Thu 27 Jun 2019 02:31:57 PM PDT*
%MOMM*%
%LPD*%
G01*
G04 APERTURE LIST*
%ADD10C,0.200000*%
%ADD11C,0.254000*%
%ADD12C,0.203200*%
G04 APERTURE END LIST*
D10*
X144780000Y-101600000D02*
G75*
G03X144780000Y-101600000I-17780000J0D01*
G01*
X128270000Y-101600000D02*
G75*
G03X128270000Y-101600000I-1270000J0D01*
G01*
D11*
G04 #@! TO.C,L1*
X127000000Y-89357200D02*
X121996200Y-89357200D01*
X121996200Y-89357200D02*
X121996200Y-78282800D01*
X121996200Y-78282800D02*
X132003800Y-78282800D01*
X132003800Y-78282800D02*
X132003800Y-89357200D01*
X132003800Y-89357200D02*
X126974600Y-89357200D01*
G04 #@! TO.C,L2*
X127000000Y-113842800D02*
X132003800Y-113842800D01*
X132003800Y-113842800D02*
X132003800Y-124917200D01*
X132003800Y-124917200D02*
X121996200Y-124917200D01*
X121996200Y-124917200D02*
X121996200Y-113842800D01*
X121996200Y-113842800D02*
X127025400Y-113842800D01*
G04 #@! TO.C,L3*
X114757200Y-96596200D02*
X114757200Y-101625400D01*
X103682800Y-96596200D02*
X114757200Y-96596200D01*
X103682800Y-106603800D02*
X103682800Y-96596200D01*
X114757200Y-106603800D02*
X103682800Y-106603800D01*
X114757200Y-101600000D02*
X114757200Y-106603800D01*
G04 #@! TO.C,L4*
X139242800Y-106603800D02*
X139242800Y-101574600D01*
X150317200Y-106603800D02*
X139242800Y-106603800D01*
X150317200Y-96596200D02*
X150317200Y-106603800D01*
X139242800Y-96596200D02*
X150317200Y-96596200D01*
X139242800Y-101600000D02*
X139242800Y-96596200D01*
G04 #@! TO.C,L1*
D12*
X126830666Y-83009619D02*
X126346857Y-83009619D01*
X126346857Y-81993619D01*
X127701523Y-83009619D02*
X127120952Y-83009619D01*
X127411238Y-83009619D02*
X127411238Y-81993619D01*
X127314476Y-82138761D01*
X127217714Y-82235523D01*
X127120952Y-82283904D01*
G04 #@! TO.C,L2*
X126830666Y-121109619D02*
X126346857Y-121109619D01*
X126346857Y-120093619D01*
X127120952Y-120190380D02*
X127169333Y-120142000D01*
X127266095Y-120093619D01*
X127508000Y-120093619D01*
X127604761Y-120142000D01*
X127653142Y-120190380D01*
X127701523Y-120287142D01*
X127701523Y-120383904D01*
X127653142Y-120529047D01*
X127072571Y-121109619D01*
X127701523Y-121109619D01*
G04 #@! TO.C,L3*
X108409619Y-101769333D02*
X108409619Y-102253142D01*
X107393619Y-102253142D01*
X107393619Y-101527428D02*
X107393619Y-100898476D01*
X107780666Y-101237142D01*
X107780666Y-101092000D01*
X107829047Y-100995238D01*
X107877428Y-100946857D01*
X107974190Y-100898476D01*
X108216095Y-100898476D01*
X108312857Y-100946857D01*
X108361238Y-100995238D01*
X108409619Y-101092000D01*
X108409619Y-101382285D01*
X108361238Y-101479047D01*
X108312857Y-101527428D01*
G04 #@! TO.C,L4*
X146509619Y-101769333D02*
X146509619Y-102253142D01*
X145493619Y-102253142D01*
X145832285Y-100995238D02*
X146509619Y-100995238D01*
X145445238Y-101237142D02*
X146170952Y-101479047D01*
X146170952Y-100850095D01*
G04 #@! TD*
M02*
